<?xml version="1.0" encoding="UTF-8"?>
<svg xmlns="http://www.w3.org/2000/svg" xmlns:xlink="http://www.w3.org/1999/xlink" width="16px" height="16px" viewBox="0 0 16 16" version="1.1">
<g id="surface1">
<path style=" stroke:none;fill-rule:nonzero;fill:rgb(100%,75.686276%,5.098039%);fill-opacity:1;" d="M 15.109375 1.332031 C 15.109375 1.089844 14.914062 0.886719 14.664062 0.886719 L 11.054688 0.886719 L 11.054688 4.941406 L 15.105469 4.941406 L 15.105469 1.332031 Z M 15.109375 1.332031 "/>
<path style=" stroke:none;fill-rule:nonzero;fill:rgb(100%,100%,100%);fill-opacity:1;" d="M 11.054688 5.832031 L 15.105469 5.832031 L 15.105469 10.167969 L 11.054688 10.167969 Z M 11.054688 5.832031 "/>
<path style=" stroke:none;fill-rule:nonzero;fill:rgb(9.803922%,30.980393%,50.980395%);fill-opacity:1;" d="M 13.082031 1.257812 C 12.210938 1.257812 11.5 1.972656 11.5 2.84375 C 11.5 3.714844 12.210938 4.425781 13.082031 4.425781 C 13.953125 4.425781 14.664062 3.714844 14.664062 2.84375 C 14.664062 1.972656 13.953125 1.257812 13.082031 1.257812 Z M 13.082031 3.535156 C 12.699219 3.535156 12.390625 3.226562 12.390625 2.84375 C 12.390625 2.460938 12.699219 2.148438 13.082031 2.148438 C 13.464844 2.148438 13.773438 2.460938 13.773438 2.84375 C 13.773438 3.226562 13.46875 3.535156 13.082031 3.535156 Z M 13.082031 3.535156 "/>
<path style=" stroke:none;fill-rule:nonzero;fill:rgb(9.803922%,30.980393%,50.980395%);fill-opacity:1;" d="M 12.9375 9.449219 C 13.808594 9.449219 14.519531 8.738281 14.519531 7.863281 C 14.519531 6.992188 13.808594 6.28125 12.9375 6.28125 C 12.066406 6.28125 11.355469 6.992188 11.355469 7.863281 C 11.355469 8.738281 12.0625 9.449219 12.9375 9.449219 Z M 12.9375 7.171875 C 13.320312 7.171875 13.628906 7.480469 13.628906 7.863281 C 13.628906 8.246094 13.320312 8.558594 12.9375 8.558594 C 12.554688 8.558594 12.246094 8.246094 12.246094 7.863281 C 12.246094 7.480469 12.550781 7.171875 12.9375 7.171875 Z M 12.9375 7.171875 "/>
<path style=" stroke:none;fill-rule:nonzero;fill:rgb(9.803922%,30.980393%,50.980395%);fill-opacity:1;" d="M 2.707031 4.253906 C 3.578125 4.253906 4.289062 3.539062 4.289062 2.667969 C 4.289062 1.796875 3.578125 1.085938 2.707031 1.085938 C 1.835938 1.085938 1.125 1.796875 1.125 2.671875 C 1.125 3.546875 1.828125 4.253906 2.707031 4.253906 Z M 2.707031 1.972656 C 3.089844 1.972656 3.398438 2.285156 3.398438 2.667969 C 3.398438 3.046875 3.089844 3.359375 2.707031 3.359375 C 2.324219 3.359375 2.015625 3.046875 2.015625 2.667969 C 2.015625 2.285156 2.324219 1.972656 2.707031 1.972656 Z M 2.707031 1.972656 "/>
<path style=" stroke:none;fill-rule:nonzero;fill:rgb(33.725491%,67.450982%,87.843138%);fill-opacity:1;" d="M 5.835938 0.886719 L 10.171875 0.886719 L 10.171875 4.941406 L 5.835938 4.941406 Z M 5.835938 0.886719 "/>
<path style=" stroke:none;fill-rule:nonzero;fill:rgb(100%,100%,100%);fill-opacity:1;" d="M 5.835938 5.832031 L 10.171875 5.832031 L 10.171875 10.167969 L 5.835938 10.167969 Z M 5.835938 5.832031 "/>
<path style=" stroke:none;fill-rule:nonzero;fill:rgb(100%,75.686276%,5.098039%);fill-opacity:1;" d="M 5.835938 11.058594 L 10.171875 11.058594 L 10.171875 15.109375 L 5.835938 15.109375 Z M 5.835938 11.058594 "/>
<path style=" stroke:none;fill-rule:nonzero;fill:rgb(100%,75.686276%,5.098039%);fill-opacity:1;" d="M 0.890625 5.832031 L 4.941406 5.832031 L 4.941406 10.167969 L 0.890625 10.167969 Z M 0.890625 5.832031 "/>
<path style=" stroke:none;fill-rule:nonzero;fill:rgb(33.725491%,67.450982%,87.843138%);fill-opacity:1;" d="M 11.054688 15.109375 L 14.664062 15.109375 C 14.90625 15.109375 15.109375 14.910156 15.109375 14.664062 L 15.109375 11.054688 L 11.054688 11.054688 Z M 11.054688 15.109375 "/>
<path style=" stroke:none;fill-rule:nonzero;fill:rgb(33.725491%,67.450982%,87.843138%);fill-opacity:1;" d="M 4.941406 11.054688 L 4.941406 15.109375 L 1.335938 15.109375 C 1.089844 15.109375 0.890625 14.910156 0.890625 14.664062 L 0.890625 11.054688 Z M 4.941406 11.054688 "/>
<path style=" stroke:none;fill-rule:nonzero;fill:rgb(100%,100%,100%);fill-opacity:1;" d="M 13.082031 2.148438 C 12.699219 2.148438 12.390625 2.457031 12.390625 2.839844 C 12.390625 3.222656 12.699219 3.53125 13.082031 3.53125 C 13.464844 3.53125 13.773438 3.222656 13.773438 2.839844 C 13.773438 2.457031 13.46875 2.148438 13.082031 2.148438 Z M 13.082031 2.148438 "/>
<path style=" stroke:none;fill-rule:nonzero;fill:rgb(9.803922%,30.980393%,50.980395%);fill-opacity:1;" d="M 6.796875 9.203125 C 6.96875 9.375 7.25 9.375 7.425781 9.203125 L 8 8.628906 L 8.578125 9.207031 C 8.75 9.378906 9.03125 9.378906 9.207031 9.207031 C 9.378906 9.03125 9.378906 8.753906 9.207031 8.574219 L 8.628906 8 L 9.207031 7.421875 C 9.378906 7.246094 9.378906 6.96875 9.207031 6.792969 C 9.03125 6.617188 8.753906 6.617188 8.578125 6.792969 L 8 7.367188 L 7.421875 6.792969 C 7.25 6.617188 6.96875 6.617188 6.792969 6.792969 C 6.621094 6.964844 6.621094 7.246094 6.792969 7.421875 L 7.371094 8 L 6.792969 8.574219 C 6.621094 8.746094 6.621094 9.027344 6.796875 9.203125 Z M 6.796875 9.203125 "/>
<path style=" stroke:none;fill-rule:nonzero;fill:rgb(9.803922%,30.980393%,50.980395%);fill-opacity:1;" d="M 6.796875 4.046875 C 6.96875 4.21875 7.25 4.21875 7.425781 4.046875 L 8.003906 3.46875 L 8.578125 4.046875 C 8.753906 4.21875 9.03125 4.21875 9.210938 4.046875 C 9.382812 3.871094 9.382812 3.59375 9.210938 3.417969 L 8.628906 2.839844 L 9.207031 2.261719 C 9.378906 2.089844 9.378906 1.808594 9.207031 1.632812 C 9.03125 1.460938 8.753906 1.460938 8.578125 1.632812 L 8 2.214844 L 7.421875 1.636719 C 7.25 1.460938 6.96875 1.460938 6.792969 1.636719 C 6.617188 1.808594 6.621094 2.089844 6.792969 2.265625 L 7.371094 2.839844 L 6.792969 3.417969 C 6.621094 3.589844 6.621094 3.871094 6.796875 4.046875 Z M 6.796875 4.046875 "/>
<path style=" stroke:none;fill-rule:nonzero;fill:rgb(9.803922%,30.980393%,50.980395%);fill-opacity:1;" d="M 1.5 14.332031 C 1.675781 14.507812 1.953125 14.507812 2.128906 14.332031 L 2.707031 13.753906 L 3.285156 14.332031 C 3.457031 14.507812 3.738281 14.507812 3.914062 14.332031 C 4.085938 14.160156 4.085938 13.878906 3.914062 13.703125 L 3.335938 13.125 L 3.914062 12.546875 C 4.085938 12.375 4.085938 12.09375 3.914062 11.917969 C 3.738281 11.742188 3.460938 11.746094 3.285156 11.917969 L 2.707031 12.496094 L 2.128906 11.917969 C 1.957031 11.746094 1.675781 11.746094 1.5 11.917969 C 1.324219 12.09375 1.328125 12.371094 1.5 12.546875 L 2.078125 13.125 L 1.5 13.703125 C 1.328125 13.878906 1.328125 14.160156 1.5 14.332031 Z M 1.5 14.332031 "/>
<path style=" stroke:none;fill-rule:nonzero;fill:rgb(9.803922%,30.980393%,50.980395%);fill-opacity:1;" d="M 14.664062 0 L 1.335938 0 C 0.597656 0 0 0.597656 0 1.332031 L 0 14.664062 C 0 15.402344 0.597656 16 1.335938 16 L 14.664062 16 C 15.402344 16 16 15.402344 16 14.667969 L 16 1.332031 C 16 0.597656 15.402344 0 14.664062 0 Z M 4.941406 15.109375 L 1.335938 15.109375 C 1.089844 15.109375 0.890625 14.910156 0.890625 14.664062 L 0.890625 11.054688 L 4.941406 11.054688 Z M 4.941406 10.164062 L 0.890625 10.164062 L 0.890625 5.832031 L 4.941406 5.832031 Z M 4.941406 4.941406 L 0.890625 4.941406 L 0.890625 1.332031 C 0.890625 1.089844 1.085938 0.886719 1.335938 0.886719 L 4.945312 0.886719 L 4.945312 4.941406 Z M 10.164062 15.109375 L 5.835938 15.109375 L 5.835938 11.058594 L 10.171875 11.058594 L 10.171875 15.109375 Z M 10.164062 10.164062 L 5.835938 10.164062 L 5.835938 5.832031 L 10.171875 5.832031 L 10.171875 10.167969 Z M 10.164062 4.941406 L 5.835938 4.941406 L 5.835938 0.886719 L 10.171875 0.886719 L 10.171875 4.941406 Z M 15.109375 14.664062 C 15.109375 14.910156 14.914062 15.109375 14.664062 15.109375 L 11.054688 15.109375 L 11.054688 11.058594 L 15.105469 11.058594 L 15.105469 14.667969 Z M 15.109375 10.164062 L 11.054688 10.164062 L 11.054688 5.832031 L 15.105469 5.832031 L 15.105469 10.167969 Z M 15.109375 4.941406 L 11.054688 4.941406 L 11.054688 0.886719 L 14.664062 0.886719 C 14.90625 0.886719 15.109375 1.085938 15.109375 1.332031 Z M 15.109375 4.941406 "/>
</g>
</svg>
